<svg width="24" height="24" viewBox="0 0 24 24" fill="none" xmlns="http://www.w3.org/2000/svg">
<path d="M10.9659 18V9.27273H13.3864V18H10.9659ZM12.1818 8.14773C11.822 8.14773 11.5133 8.02841 11.2557 7.78977C11.0019 7.54735 10.875 7.25758 10.875 6.92045C10.875 6.58712 11.0019 6.30114 11.2557 6.0625C11.5133 5.82008 11.822 5.69886 12.1818 5.69886C12.5417 5.69886 12.8485 5.82008 13.1023 6.0625C13.3598 6.30114 13.4886 6.58712 13.4886 6.92045C13.4886 7.25758 13.3598 7.54735 13.1023 7.78977C12.8485 8.02841 12.5417 8.14773 12.1818 8.14773Z" fill="white"/>
<circle cx="12" cy="12" r="11" stroke="white" stroke-width="2"/>
</svg>
